<svg xmlns="http://www.w3.org/2000/svg" width="13" height="11" viewBox="0 0 13 11">
  <g id="_" data-name="#" transform="translate(0)" opacity="0.39">
    <path id="Shape" d="M8.487,11H7.833a.34.34,0,0,1-.264-.121.285.285,0,0,1-.063-.238l.4-2.085H3.922L3.5,10.748A.325.325,0,0,1,3.173,11H2.519a.341.341,0,0,1-.265-.121.284.284,0,0,1-.063-.238l.4-2.085H.332a.34.34,0,0,1-.264-.121A.284.284,0,0,1,.005,8.2l.116-.611a.325.325,0,0,1,.327-.253H2.827l.7-3.667H1.269A.341.341,0,0,1,1,3.546a.285.285,0,0,1-.063-.238L1.058,2.7a.326.326,0,0,1,.328-.253H3.763L4.186.252A.327.327,0,0,1,4.514,0h.653a.341.341,0,0,1,.265.121.284.284,0,0,1,.063.238l-.4,2.085H9.077L9.5.252A.325.325,0,0,1,9.827,0h.654a.34.34,0,0,1,.264.121.285.285,0,0,1,.063.239l-.4,2.085h2.262a.341.341,0,0,1,.264.12A.285.285,0,0,1,13,2.8l-.116.611a.325.325,0,0,1-.328.253H10.174l-.7,3.667h2.263A.34.34,0,0,1,12,7.454a.284.284,0,0,1,.062.238l-.116.611a.325.325,0,0,1-.328.253H9.237l-.423,2.192A.325.325,0,0,1,8.487,11ZM4.859,3.667l-.7,3.667H8.141l.7-3.667H4.859Z" fill="#bdbdbe"/>
  </g>
</svg>
